<svg width="74" height="74" viewBox="0 0 74 74" fill="none" xmlns="http://www.w3.org/2000/svg">
<path d="M58.7789 11.1679C59.5387 13.0054 60.9972 14.4661 62.8336 15.2286L69.273 17.8959C71.1107 18.6571 72.5708 20.1172 73.332 21.9549C74.0932 23.7926 74.0932 25.8574 73.332 27.6951L70.6666 34.13C69.9051 35.9685 69.904 38.0354 70.669 39.873L73.3298 46.306C73.7071 47.2161 73.9014 48.1918 73.9016 49.1771C73.9018 50.1624 73.7078 51.1381 73.3307 52.0484C72.9536 52.9587 72.4009 53.7858 71.7041 54.4825C71.0072 55.1791 70.1799 55.7315 69.2695 56.1083L62.8347 58.7737C60.9971 59.5335 59.5365 60.9919 58.7739 62.8284L56.1066 69.2678C55.3454 71.1055 53.8854 72.5656 52.0477 73.3268C50.2099 74.088 48.1451 74.088 46.3074 73.3268L39.8726 70.6614C38.0348 69.9021 35.9707 69.9036 34.1341 70.6657L27.6947 73.3292C25.858 74.0886 23.795 74.088 21.9587 73.3274C20.1225 72.5668 18.6633 71.1085 17.9016 69.2727L15.2335 62.8314C14.4737 60.9938 13.0152 59.5332 11.1788 58.7706L4.73936 56.1033C2.90246 55.3424 1.44284 53.8833 0.681351 52.0467C-0.0801349 50.21 -0.0811696 48.1461 0.67848 46.3087L3.34387 39.8739C4.1032 38.0361 4.10165 35.972 3.33956 34.1354L0.677994 27.6914C0.300637 26.7812 0.10633 25.8055 0.106173 24.8202C0.106014 23.8349 0.300008 22.8592 0.677074 21.9489C1.05414 21.0386 1.60688 20.2115 2.30372 19.5149C3.00056 18.8183 3.82783 18.2658 4.73826 17.889L11.1731 15.2236C13.0091 14.4645 14.4688 13.0079 15.2319 11.1736L17.8992 4.73414C18.6604 2.89643 20.1205 1.43638 21.9582 0.675174C23.7959 -0.0860309 25.8607 -0.0860313 27.6985 0.675173L34.1333 3.34056C35.971 4.09989 38.0351 4.09834 39.8717 3.33625L46.3139 0.679305C48.1514 -0.0814713 50.2157 -0.0813169 52.0531 0.679738C53.8904 1.44079 55.3503 2.90043 56.1116 4.73766L58.7797 11.179L58.7789 11.1679Z" fill="#21C373"/>
</svg>
