<svg width="40" height="46" viewBox="0 0 40 46" fill="none" xmlns="http://www.w3.org/2000/svg">
<path fill-rule="evenodd" clip-rule="evenodd" d="M20.0017 27.2149C25.0869 27.2149 29.7361 29.0729 33.2861 32.1376C36.8788 35.2391 39.3402 39.5788 39.989 44.4832C40.084 45.2187 39.5548 45.89 38.8075 45.9835C38.7498 45.9908 38.6939 45.9927 38.638 45.9963L1.36962 46C0.613086 46 0 45.3965 0 44.6519C0 44.5474 0.0130443 44.4483 0.033542 44.3511C0.708117 39.5036 3.1585 35.2115 6.71775 32.1393C8.65013 30.4721 10.9086 29.1607 13.3834 28.3115C13.4318 28.2913 13.4821 28.2748 13.5343 28.2602C15.5654 27.5834 17.7419 27.2129 20.0039 27.2129L20.0017 27.2149ZM12.5313 33.1997V31.5581C11.0685 32.2404 9.71571 33.1208 8.51377 34.159C5.78384 36.5158 3.81049 39.6962 2.99257 43.3042H37.0109C36.1929 39.6964 34.2195 36.516 31.4897 34.159C28.4262 31.5141 24.4048 29.9093 19.9998 29.9093C18.36 29.9093 16.7705 30.1312 15.2667 30.5494V33.1997C15.8873 33.4088 16.4425 33.7554 16.8935 34.2011C17.6612 34.9568 18.1383 36.0022 18.1383 37.1504V39.3532C18.1383 40.0978 17.5252 40.7013 16.7687 40.7013C16.0121 40.7013 15.3991 40.0978 15.3991 39.3532V37.1504C15.3991 36.745 15.2295 36.3764 14.9574 36.1067C14.6835 35.8371 14.3089 35.6721 13.8971 35.6721C13.4853 35.6721 13.1108 35.839 12.8368 36.1067C12.5629 36.3764 12.3952 36.7469 12.3952 37.1504V39.3532C12.3952 40.0978 11.7821 40.7013 11.0256 40.7013C10.269 40.7013 9.65596 40.0978 9.65596 39.3532V37.1504C9.65596 36.0004 10.133 34.9567 10.9007 34.2011C11.3535 33.7554 11.9088 33.4088 12.5275 33.1997H12.5313ZM9.60947 12.8189C11.5139 12.641 13.8264 12.2705 16.0103 11.5203C18.6116 10.6253 21.0321 9.18545 22.281 6.8763C22.635 6.21787 23.4642 5.9684 24.1313 6.31873C24.381 6.44895 24.573 6.6452 24.6959 6.87447C24.8953 7.21012 26.6115 9.96314 30.3498 11.9769C30.1224 9.53023 29.0193 7.33293 27.3496 5.69123C25.4695 3.84059 22.87 2.69426 20.0004 2.69426C17.1289 2.69426 14.5312 3.83876 12.6512 5.69123C10.7934 7.51802 9.63809 10.0363 9.60828 12.817L9.60947 12.8189ZM20.0017 0C23.626 0 26.9091 1.44712 29.2853 3.78566C31.6614 6.1242 33.1314 9.3558 33.1314 12.9234C33.1314 16.4908 31.6611 19.7223 29.2853 22.061C26.9075 24.3996 23.6262 25.8467 20.0017 25.8467C16.3773 25.8467 13.0942 24.3996 10.7181 22.061C8.34037 19.7225 6.87201 16.4909 6.87201 12.9234C6.87201 9.35594 8.34223 6.12443 10.7181 3.78566C13.094 1.44688 16.3772 0 20.0017 0Z" fill="#5A749E"/>
</svg>
