<svg width="46" height="50" viewBox="0 0 46 50" fill="none" xmlns="http://www.w3.org/2000/svg">
<path d="M40.5002 47.5001V42.5001C40.5002 40.5109 39.7095 38.6039 38.303 37.1973C36.9845 35.8788 35.2261 35.1019 33.3726 35.0098L33.0002 35.0001H13.0002C11.0111 35.0001 9.10403 35.7908 7.69751 37.1973C6.29099 38.6039 5.50024 40.5109 5.50024 42.5001V47.5001C5.50024 48.8808 4.38096 50.0001 3.00024 50.0001C1.61953 50.0001 0.500244 48.8808 0.500244 47.5001V42.5001C0.500244 39.1849 1.81693 36.0052 4.16113 33.6609C6.50534 31.3167 9.68504 30.0001 13.0002 30.0001H33.0002L33.6204 30.0159C36.7098 30.1693 39.6417 31.4633 41.8394 33.6609C44.1836 36.0052 45.5002 39.1849 45.5002 42.5001V47.5001C45.5002 48.8808 44.381 50.0001 43.0002 50.0001C41.6195 50.0001 40.5002 48.8808 40.5002 47.5001ZM30.5002 12.5001C30.5002 8.35793 27.1424 5.00006 23.0002 5.00006C18.8581 5.00006 15.5002 8.35793 15.5002 12.5001C15.5002 16.6422 18.8581 20.0001 23.0002 20.0001C27.1424 20.0001 30.5002 16.6422 30.5002 12.5001ZM35.5002 12.5001C35.5002 19.4036 29.9038 25.0001 23.0002 25.0001C16.0967 25.0001 10.5002 19.4036 10.5002 12.5001C10.5002 5.5965 16.0967 6.10352e-05 23.0002 6.10352e-05C29.9038 6.10352e-05 35.5002 5.5965 35.5002 12.5001Z" fill="#868585"/>
</svg>
