<svg width="35" height="35" viewBox="0 0 35 35" fill="none" xmlns="http://www.w3.org/2000/svg">
<path fill-rule="evenodd" clip-rule="evenodd" d="M8.5084 4.10369C8.03544 3.86447 7.47688 3.86447 7.00391 4.10369C6.82604 4.19366 6.60431 4.38577 5.62594 5.36414L5.36321 5.62686C4.42952 6.56056 4.17784 6.83059 3.97666 7.18874C3.74347 7.60384 3.54811 8.35508 3.54953 8.8312C3.55079 9.25488 3.61334 9.51003 3.88877 10.4804C4.6866 13.2914 5.89935 16.0087 7.52698 18.5361C8.02536 19.3099 7.80202 20.3413 7.02813 20.8397C6.25425 21.3381 5.22288 21.1147 4.7245 20.3408C2.91569 17.5321 1.56823 14.5126 0.682098 11.3906C0.673144 11.3591 0.664254 11.3278 0.655435 11.2967C0.409589 10.4317 0.218946 9.76094 0.216208 8.84112C0.213078 7.78983 0.555589 6.47277 1.07047 5.55619C1.52181 4.75275 2.11706 4.1581 2.89328 3.38267C2.9305 3.34549 2.96814 3.3079 3.00619 3.26984L3.26892 3.00712C3.32266 2.95337 3.37581 2.90009 3.42844 2.84732C4.15251 2.1214 4.77843 1.49387 5.49942 1.1292C6.91833 0.411525 8.59399 0.411523 10.0129 1.1292C10.7339 1.49388 11.3598 2.1214 12.0839 2.84733C12.1365 2.90009 12.1897 2.95337 12.2434 3.00711L12.5682 3.3319C12.6036 3.36731 12.6387 3.40233 12.6734 3.43701C13.1512 3.91396 13.5627 4.32482 13.8515 4.7689C14.9289 6.42613 14.9289 8.56258 13.8515 10.2198C13.5627 10.6639 13.1512 11.0747 12.6734 11.5517C12.6387 11.5864 12.6036 11.6214 12.5682 11.6568C12.4722 11.7528 12.4232 11.8021 12.3891 11.8382C12.3884 11.8409 12.3878 11.8439 12.3873 11.8471C12.3867 11.8507 12.3862 11.8541 12.3859 11.8571C12.3914 11.8693 12.3988 11.8854 12.4091 11.9072C12.4251 11.9412 12.4439 11.9805 12.4696 12.034C12.6572 12.4246 12.8565 12.8109 13.0676 13.1923C13.5134 13.9977 13.2219 15.0119 12.4165 15.4576C11.6112 15.9034 10.597 15.6119 10.1512 14.8066C9.90881 14.3686 9.67998 13.9251 9.46472 13.4768C9.45851 13.4638 9.45212 13.4506 9.44559 13.4371C9.36308 13.2659 9.25702 13.0459 9.1791 12.7786C8.89973 11.8202 9.08788 10.7168 9.66907 9.90512C9.8319 9.67773 10.0219 9.48837 10.172 9.33882C10.1854 9.32549 10.1985 9.31248 10.2112 9.29979C10.854 8.65694 10.9856 8.5124 11.0569 8.40284C11.416 7.85043 11.416 7.13828 11.0569 6.58587C10.9856 6.47632 10.854 6.33177 10.2112 5.68892L9.88638 5.36414C8.90801 4.38577 8.68627 4.19366 8.5084 4.10369ZM33.1779 1.82149C33.8288 2.47236 33.8288 3.52764 33.1779 4.17851L18.0303 19.3261C19.6008 20.6972 21.3134 21.8147 23.1155 22.6799C23.1691 22.7056 23.2083 22.7245 23.2424 22.7405C23.2642 22.7507 23.2803 22.7582 23.2925 22.7637C23.2955 22.7633 23.2988 22.7629 23.3024 22.7623C23.3057 22.7617 23.3087 22.7611 23.3114 22.7605C23.3475 22.7264 23.3967 22.6774 23.4927 22.5814C23.5282 22.546 23.5632 22.5109 23.5979 22.4761C24.0748 21.9984 24.4857 21.5868 24.9298 21.2981C26.587 20.2206 28.7234 20.2206 30.3807 21.2981C30.8247 21.5868 31.2356 21.9984 31.7125 22.4761C31.7472 22.5109 31.7822 22.546 31.8177 22.5814L32.1424 22.9062C32.1962 22.9599 32.2495 23.013 32.3022 23.0657C33.0282 23.7897 33.6557 24.4157 34.0204 25.1367C34.738 26.5556 34.738 28.2312 34.0204 29.6501C33.6557 30.3711 33.0282 30.9971 32.3022 31.7211C32.2495 31.7738 32.1962 31.8269 32.1424 31.8806L31.8797 32.1434C31.8417 32.1814 31.8041 32.2191 31.7669 32.2563C30.9915 33.0325 30.3968 33.6278 29.5934 34.0791C28.6768 34.594 27.3597 34.9365 26.3084 34.9333C25.3886 34.9306 24.7178 34.74 23.8528 34.4941C23.8218 34.4853 23.7905 34.4764 23.759 34.4675C18.9071 33.0904 14.305 30.5995 10.358 26.9985L3.1779 34.1785C2.52703 34.8294 1.47176 34.8294 0.820882 34.1785C0.170008 33.5276 0.170008 32.4724 0.820882 31.8215L30.8209 1.82149C31.4718 1.17062 32.527 1.17062 33.1779 1.82149ZM15.6686 21.6878L12.7177 24.6387C16.2493 27.8285 20.3495 30.0348 24.6691 31.2608C25.6395 31.5362 25.8947 31.5988 26.3184 31.6C26.7945 31.6014 27.5457 31.4061 27.9608 31.1729C28.319 30.9717 28.589 30.72 29.5227 29.7863L29.7854 29.5236C30.7638 28.5452 30.9559 28.3235 31.0459 28.1456C31.2851 27.6727 31.2851 27.1141 31.0459 26.6412C30.9559 26.4633 30.7638 26.2416 29.7854 25.2632L29.4606 24.9384C28.8178 24.2956 28.6732 24.1639 28.5637 24.0927C28.0113 23.7335 27.2991 23.7335 26.7467 24.0927C26.6372 24.1639 26.4926 24.2955 25.8498 24.9384C25.8371 24.9511 25.8241 24.9642 25.8107 24.9775C25.6612 25.1276 25.4718 25.3177 25.2444 25.4805C24.4328 26.0617 23.3293 26.2498 22.371 25.9705C22.1037 25.8925 21.8836 25.7865 21.7125 25.704C21.699 25.6974 21.6857 25.6911 21.6728 25.6849C19.5372 24.6595 17.5135 23.3267 15.6686 21.6878Z" fill="black"/>
</svg>
