<svg width="38" height="28" viewBox="0 0 38 28" fill="none" xmlns="http://www.w3.org/2000/svg">
<path fill-rule="evenodd" clip-rule="evenodd" d="M10.2645 0.666627H19.4022C20.7438 0.666605 21.8511 0.666588 22.7531 0.740284C23.6899 0.816826 24.5511 0.981099 25.36 1.39325C26.6144 2.03241 27.6342 3.05228 28.2734 4.30669C28.6855 5.11558 28.8498 5.97676 28.9264 6.91358C28.9947 7.75017 28.9997 8.76334 29 9.9763L32.256 6.72031C32.5746 6.40164 32.8877 6.08842 33.1622 5.85861C33.4071 5.65358 33.9228 5.2424 34.6372 5.18618C35.435 5.12339 36.2146 5.44632 36.7344 6.05485C37.1998 6.59976 37.2737 7.25519 37.3019 7.57334C37.3335 7.92994 37.3334 8.37285 37.3334 8.82346V19.1765C37.3334 19.6271 37.3335 20.07 37.3019 20.4266C37.2737 20.7447 37.1998 21.4002 36.7344 21.9451C36.2146 22.5536 35.435 22.8765 34.6372 22.8137C33.9228 22.7575 33.4071 22.3463 33.1622 22.1413C32.8877 21.9115 32.5746 21.5983 32.256 21.2796L29 18.0236C28.9997 19.2366 28.9947 20.2498 28.9264 21.0863C28.8498 22.0232 28.6855 22.8843 28.2734 23.6932C27.6342 24.9476 26.6144 25.9675 25.36 26.6067C24.5511 27.0188 23.6899 27.1831 22.7531 27.2596C21.8511 27.3333 20.7438 27.3333 19.4021 27.3333H10.2646C8.92293 27.3333 7.81565 27.3333 6.91364 27.2596C5.97682 27.1831 5.11564 27.0188 4.30675 26.6067C3.05234 25.9675 2.03247 24.9476 1.39331 23.6932C0.98116 22.8843 0.816887 22.0232 0.740345 21.0863C0.666649 20.1843 0.666666 19.0771 0.666688 17.7355V10.2645C0.666666 8.92285 0.666649 7.81558 0.740345 6.91358C0.816887 5.97676 0.98116 5.11558 1.39331 4.30669C2.03247 3.05228 3.05234 2.03241 4.30675 1.39325C5.11564 0.981099 5.97682 0.816826 6.91365 0.740284C7.81564 0.666588 8.9229 0.666605 10.2645 0.666627ZM25.6667 10.3333C25.6667 8.90566 25.6654 7.93517 25.6041 7.18502C25.5444 6.45433 25.4362 6.08066 25.3034 5.81999C24.9838 5.19279 24.4739 4.68285 23.8467 4.36327C23.586 4.23046 23.2123 4.12225 22.4816 4.06255C21.7315 4.00126 20.761 3.99996 19.3334 3.99996H10.3334C8.90572 3.99996 7.93523 4.00126 7.18508 4.06255C6.45439 4.12225 6.08072 4.23046 5.82005 4.36327C5.19285 4.68285 4.68291 5.19279 4.36333 5.81999C4.23052 6.08066 4.12231 6.45433 4.06261 7.18502C4.00132 7.93517 4.00002 8.90566 4.00002 10.3333V17.6666C4.00002 19.0943 4.00132 20.0647 4.06261 20.8149C4.12231 21.5456 4.23052 21.9193 4.36333 22.1799C4.68291 22.8071 5.19285 23.3171 5.82005 23.6366C6.08072 23.7695 6.45439 23.8777 7.18508 23.9374C7.93523 23.9987 8.90572 24 10.3334 24H19.3334C20.761 24 21.7315 23.9987 22.4816 23.9374C23.2123 23.8777 23.586 23.7695 23.8467 23.6366C24.4739 23.3171 24.9838 22.8071 25.3034 22.1799C25.4362 21.9193 25.5444 21.5456 25.6041 20.8149C25.6654 20.0647 25.6667 19.0943 25.6667 17.6666V10.3333ZM29.6904 14L34 18.3096V9.69032L29.6904 14Z" fill="black"/>
</svg>
