<svg width="28" height="30" viewBox="0 0 28 30" fill="none" xmlns="http://www.w3.org/2000/svg">
<path fill-rule="evenodd" clip-rule="evenodd" d="M5 9C5 4.02944 9.02944 0 14 0C18.9706 0 23 4.02944 23 9V10.7255C23.4239 10.8184 23.8308 10.9536 24.2239 11.154C25.3529 11.7292 26.2708 12.6471 26.846 13.7761C27.217 14.5041 27.3648 15.2791 27.4337 16.1223C27.5 16.934 27.5 17.9306 27.5 19.138V21.362C27.5 22.5694 27.5 23.566 27.4337 24.3777C27.3648 25.2209 27.217 25.9959 26.846 26.7239C26.2708 27.8529 25.3529 28.7708 24.2239 29.346C23.4959 29.717 22.7209 29.8648 21.8777 29.9337C21.066 30 20.0694 30 18.862 30H9.13801C7.93058 30 6.93405 30 6.12226 29.9337C5.27912 29.8648 4.50406 29.717 3.77606 29.346C2.64709 28.7708 1.7292 27.8529 1.15396 26.7239C0.783026 25.9959 0.63518 25.2209 0.566292 24.3777C0.499966 23.5659 0.499982 22.5694 0.500001 21.3619V19.1381C0.499982 17.9306 0.499966 16.9341 0.566292 16.1223C0.63518 15.2791 0.783026 14.5041 1.15396 13.7761C1.7292 12.6471 2.64709 11.7292 3.77606 11.154C4.16921 10.9536 4.57609 10.8184 5 10.7255V9ZM8 10.5024C8.35657 10.5 8.73559 10.5 9.13805 10.5H18.8619C19.2644 10.5 19.6434 10.5 20 10.5024V9C20 5.68629 17.3137 3 14 3C10.6863 3 8 5.68629 8 9V10.5024ZM6.36656 13.5563C5.70894 13.6101 5.37263 13.7074 5.13803 13.827C4.57354 14.1146 4.1146 14.5735 3.82698 15.138C3.70745 15.3726 3.61006 15.7089 3.55633 16.3666C3.50117 17.0417 3.5 17.9151 3.5 19.2V21.3C3.5 22.5849 3.50117 23.4583 3.55633 24.1334C3.61006 24.7911 3.70745 25.1274 3.82698 25.362C4.1146 25.9265 4.57354 26.3854 5.13803 26.673C5.37263 26.7926 5.70894 26.8899 6.36656 26.9437C7.04169 26.9988 7.91513 27 9.2 27H18.8C20.0849 27 20.9583 26.9988 21.6334 26.9437C22.2911 26.8899 22.6274 26.7926 22.862 26.673C23.4265 26.3854 23.8854 25.9265 24.173 25.362C24.2926 25.1274 24.3899 24.7911 24.4437 24.1334C24.4988 23.4583 24.5 22.5849 24.5 21.3V19.2C24.5 17.9151 24.4988 17.0417 24.4437 16.3666C24.3899 15.7089 24.2926 15.3726 24.173 15.138C23.8854 14.5735 23.4265 14.1146 22.862 13.827C22.6274 13.7074 22.2911 13.6101 21.6334 13.5563C20.9583 13.5012 20.0849 13.5 18.8 13.5H9.2C7.91513 13.5 7.04169 13.5012 6.36656 13.5563ZM14 17.25C14.8284 17.25 15.5 17.9216 15.5 18.75V21.75C15.5 22.5784 14.8284 23.25 14 23.25C13.1716 23.25 12.5 22.5784 12.5 21.75V18.75C12.5 17.9216 13.1716 17.25 14 17.25Z" fill="#091227"/>
</svg>
