<svg width="36" height="36" viewBox="0 0 36 36" fill="none" xmlns="http://www.w3.org/2000/svg">
<path fill-rule="evenodd" clip-rule="evenodd" d="M17.9998 8.25C12.1409 8.25 6.80801 10.4874 2.80345 14.157C2.19268 14.7167 1.24384 14.6753 0.68415 14.0645C0.124462 13.4538 0.165872 12.5049 0.776643 11.9452C5.31271 7.78856 11.3615 5.25 17.9998 5.25C24.6381 5.25 30.687 7.78856 35.223 11.9452C35.8338 12.5049 35.8752 13.4538 35.3155 14.0645C34.7558 14.6753 33.807 14.7167 33.1962 14.157C29.1917 10.4874 23.8588 8.25 17.9998 8.25ZM18 15.75C14.2 15.75 10.7332 17.1611 8.08943 19.49C7.4678 20.0376 6.51995 19.9776 5.97235 19.356C5.42475 18.7343 5.48476 17.7865 6.10639 17.2389C9.27697 14.4459 13.4423 12.75 18 12.75C22.5577 12.75 26.723 14.4459 29.8936 17.2389C30.5152 17.7865 30.5752 18.7343 30.0276 19.356C29.48 19.9776 28.5322 20.0376 27.9105 19.49C25.2667 17.1611 21.8 15.75 18 15.75ZM17.9998 23.25C16.2279 23.25 14.6031 23.8626 13.3199 24.8888C12.6729 25.4062 11.729 25.3012 11.2116 24.6542C10.6942 24.0072 10.7992 23.0633 11.4462 22.5459C13.2421 21.1097 15.5226 20.25 17.9998 20.25C20.44 20.25 22.6896 21.0843 24.4729 22.4821C25.1249 22.9932 25.2391 23.936 24.728 24.588C24.217 25.24 23.2741 25.3543 22.6221 24.8432C21.3481 23.8446 19.7455 23.25 17.9998 23.25ZM16.5 29.25C16.5 28.4216 17.1716 27.75 18 27.75H18.015C18.8434 27.75 19.515 28.4216 19.515 29.25C19.515 30.0784 18.8434 30.75 18.015 30.75H18C17.1716 30.75 16.5 30.0784 16.5 29.25Z" fill="#091227"/>
</svg>
