<svg width="28" height="38" viewBox="0 0 28 38" fill="none" xmlns="http://www.w3.org/2000/svg">
<path fill-rule="evenodd" clip-rule="evenodd" d="M7.33335 7.33329C7.33335 3.65139 10.3181 0.666626 14 0.666626C17.6819 0.666626 20.6667 3.65139 20.6667 7.33329V19C20.6667 22.6819 17.6819 25.6666 14 25.6666C10.3181 25.6666 7.33335 22.6819 7.33335 19V7.33329ZM14 3.99996C12.1591 3.99996 10.6667 5.49234 10.6667 7.33329V19C10.6667 20.8409 12.1591 22.3333 14 22.3333C15.841 22.3333 17.3334 20.8409 17.3334 19V7.33329C17.3334 5.49234 15.841 3.99996 14 3.99996ZM2.33335 14C3.25383 14 4.00002 14.7462 4.00002 15.6666V19C4.00002 24.5228 8.47717 29 14 29C19.5229 29 24 24.5228 24 19V15.6666C24 14.7462 24.7462 14 25.6667 14C26.5872 14 27.3334 14.7462 27.3334 15.6666V19C27.3334 25.7993 22.2439 31.41 15.6667 32.2301V34H20.6667C21.5872 34 22.3334 34.7462 22.3334 35.6666C22.3334 36.5871 21.5872 37.3333 20.6667 37.3333H7.33335C6.41288 37.3333 5.66669 36.5871 5.66669 35.6666C5.66669 34.7462 6.41288 34 7.33335 34H12.3334V32.2301C5.75617 31.41 0.666687 25.7993 0.666687 19V15.6666C0.666687 14.7462 1.41288 14 2.33335 14Z" fill="black"/>
</svg>
